<svg xmlns="http://www.w3.org/2000/svg" width="220" height="220" viewBox="0 0 220 220">
  <g fill="none" stroke="#3B1A0A" stroke-width="1.1" opacity="0.05">
    <g transform="translate(40,40)">
      <polygon points="0,-22 19,-11 19,11 0,22 -19,11 -19,-11" />
      <ellipse cx="0" cy="0" rx="7" ry="14" />
      <path d="M -7 0 Q 0 -14 7 0" />
    </g>
    <circle cx="160" cy="50" r="2.2" fill="#3B1A0A" stroke="none" />
    <circle cx="185" cy="75" r="1.6" fill="#3B1A0A" stroke="none" />
    <circle cx="150" cy="80" r="1.6" fill="#3B1A0A" stroke="none" />
    <circle cx="175" cy="100" r="2" fill="#3B1A0A" stroke="none" />
    <line x1="160" y1="50" x2="185" y2="75" />
    <line x1="160" y1="50" x2="150" y2="80" />
    <line x1="185" y1="75" x2="175" y2="100" />
    <line x1="150" y1="80" x2="175" y2="100" />
    <g transform="translate(60,170)">
      <polygon points="0,-22 19,-11 19,11 0,22 -19,11 -19,-11" />
      <ellipse cx="0" cy="0" rx="7" ry="14" />
      <path d="M -7 0 Q 0 -14 7 0" />
    </g>
    <circle cx="190" cy="180" r="2" fill="#3B1A0A" stroke="none" />
    <circle cx="200" cy="200" r="1.4" fill="#3B1A0A" stroke="none" />
    <line x1="190" y1="180" x2="200" y2="200" />
  </g>
</svg>
